<mxfile host="65bd71144e">
    <diagram id="DOgVu0ASEl-jOSk4k-I_" name="PÃ¡gina-1">
        <mxGraphModel dx="886" dy="373" grid="1" gridSize="10" guides="1" tooltips="1" connect="1" arrows="1" fold="1" page="1" pageScale="1" pageWidth="827" pageHeight="1169" background="#999999" math="0" shadow="0">
            <root>
                <mxCell id="0"/>
                <mxCell id="1" parent="0"/>
                <mxCell id="2" value="Category" style="rounded=0;whiteSpace=wrap;html=1;fillColor=#647687;fontColor=#ffffff;strokeColor=#314354;" vertex="1" parent="1">
                    <mxGeometry x="140" y="90" width="190" height="30" as="geometry"/>
                </mxCell>
                <mxCell id="3" value="- id : Number - int&lt;br&gt;- name : String&lt;br&gt;- products : array" style="rounded=0;whiteSpace=wrap;html=1;fillColor=#eeeeee;align=left;strokeColor=#36393d;" vertex="1" parent="1">
                    <mxGeometry x="140" y="120" width="190" height="80" as="geometry"/>
                </mxCell>
                <mxCell id="4" value="CategoryServices" style="rounded=0;whiteSpace=wrap;html=1;fillColor=#008a00;fontColor=#ffffff;strokeColor=#005700;" vertex="1" parent="1">
                    <mxGeometry x="140" y="290" width="220" height="30" as="geometry"/>
                </mxCell>
                <mxCell id="5" value="+ addCategory(name) : Category&lt;br&gt;+&amp;nbsp;getCategoryById(id) : Category&lt;br&gt;+ updateCategory(id, name) : name&lt;br&gt;+ deleteCategory(id) : void" style="rounded=0;whiteSpace=wrap;html=1;fillColor=#cdeb8b;align=left;strokeColor=#36393d;" vertex="1" parent="1">
                    <mxGeometry x="140" y="380" width="220" height="80" as="geometry"/>
                </mxCell>
                <mxCell id="6" value="Product" style="rounded=0;whiteSpace=wrap;html=1;fillColor=#fa6800;fontColor=#000000;strokeColor=#C73500;" vertex="1" parent="1">
                    <mxGeometry x="450" y="90" width="190" height="30" as="geometry"/>
                </mxCell>
                <mxCell id="28" style="edgeStyle=none;html=1;exitX=0.75;exitY=1;exitDx=0;exitDy=0;entryX=0.462;entryY=0.022;entryDx=0;entryDy=0;entryPerimeter=0;strokeColor=#000000;strokeWidth=3;fontSize=8;fontColor=#FFFFFF;endArrow=diamondThin;endFill=1;" edge="1" parent="1" source="9" target="11">
                    <mxGeometry relative="1" as="geometry"/>
                </mxCell>
                <mxCell id="9" value="- name : String&lt;br&gt;- id : String&lt;br&gt;- price : Number - float&lt;br&gt;- category : String" style="rounded=0;whiteSpace=wrap;html=1;fillColor=#ffcc99;align=left;strokeColor=#36393d;" vertex="1" parent="1">
                    <mxGeometry x="450" y="120" width="190" height="80" as="geometry"/>
                </mxCell>
                <mxCell id="10" value="- categories : array&lt;br&gt;- nextCategory : Number - int" style="rounded=0;whiteSpace=wrap;html=1;fillColor=#cdeb8b;align=left;strokeColor=#36393d;" vertex="1" parent="1">
                    <mxGeometry x="140" y="320" width="220" height="60" as="geometry"/>
                </mxCell>
                <mxCell id="11" value="ProductServices" style="rounded=0;whiteSpace=wrap;html=1;fillColor=#a20025;fontColor=#ffffff;strokeColor=#6F0000;" vertex="1" parent="1">
                    <mxGeometry x="450" y="290" width="310" height="30" as="geometry"/>
                </mxCell>
                <mxCell id="12" value="+&amp;nbsp;addProduct(name, price, category) : product&lt;br&gt;+&amp;nbsp;getProductById(id) : product&lt;br&gt;+ updateProduct(id, name, price, category) : void&lt;br&gt;+&amp;nbsp;&amp;nbsp;deleteProduct(id) : void" style="rounded=0;whiteSpace=wrap;html=1;fillColor=#ffcccc;align=left;strokeColor=#36393d;" vertex="1" parent="1">
                    <mxGeometry x="450" y="380" width="310" height="80" as="geometry"/>
                </mxCell>
                <mxCell id="13" value="- products : array&lt;br&gt;- NextProduct : Number - int" style="rounded=0;whiteSpace=wrap;html=1;fillColor=#ffcccc;align=left;strokeColor=#36393d;" vertex="1" parent="1">
                    <mxGeometry x="450" y="320" width="310" height="60" as="geometry"/>
                </mxCell>
                <mxCell id="20" value="&lt;span style=&quot;font-size: 8px;&quot;&gt;&lt;b&gt;1&lt;/b&gt;&lt;/span&gt;" style="text;html=1;strokeColor=none;fillColor=none;align=center;verticalAlign=middle;whiteSpace=wrap;rounded=0;" vertex="1" parent="1">
                    <mxGeometry x="330" y="150" width="40" height="20" as="geometry"/>
                </mxCell>
                <mxCell id="29" style="edgeStyle=none;html=1;exitX=1;exitY=0.25;exitDx=0;exitDy=0;entryX=0;entryY=0.25;entryDx=0;entryDy=0;strokeColor=#000000;strokeWidth=3;fontSize=8;fontColor=#FFFFFF;endArrow=diamondThin;endFill=1;" edge="1" parent="1" source="21" target="20">
                    <mxGeometry relative="1" as="geometry"/>
                </mxCell>
                <mxCell id="21" value="&lt;span style=&quot;font-size: 8px;&quot;&gt;&lt;b&gt;1..*&lt;/b&gt;&lt;/span&gt;" style="text;html=1;strokeColor=none;fillColor=none;align=center;verticalAlign=middle;whiteSpace=wrap;rounded=0;strokeWidth=1;" vertex="1" parent="1">
                    <mxGeometry x="410" y="150" width="40" height="20" as="geometry"/>
                </mxCell>
                <mxCell id="30" style="edgeStyle=none;html=1;exitX=0;exitY=0;exitDx=0;exitDy=0;entryX=0;entryY=1;entryDx=0;entryDy=0;strokeColor=#000000;strokeWidth=3;fontSize=8;fontColor=#FFFFFF;endArrow=diamondThin;endFill=1;" edge="1" parent="1" source="22" target="23">
                    <mxGeometry relative="1" as="geometry"/>
                </mxCell>
                <mxCell id="22" value="&lt;span style=&quot;font-size: 8px;&quot;&gt;1&lt;/span&gt;" style="text;html=1;strokeColor=none;fillColor=none;align=center;verticalAlign=middle;whiteSpace=wrap;rounded=0;" vertex="1" parent="1">
                    <mxGeometry x="230" y="200" width="40" height="20" as="geometry"/>
                </mxCell>
                <mxCell id="23" value="&lt;span style=&quot;font-size: 8px;&quot;&gt;0..*&lt;/span&gt;" style="text;html=1;strokeColor=none;fillColor=none;align=center;verticalAlign=middle;whiteSpace=wrap;rounded=0;" vertex="1" parent="1">
                    <mxGeometry x="230" y="270" width="40" height="20" as="geometry"/>
                </mxCell>
                <mxCell id="26" value="&lt;span style=&quot;font-size: 8px;&quot;&gt;1&lt;/span&gt;" style="text;html=1;strokeColor=none;fillColor=none;align=center;verticalAlign=middle;whiteSpace=wrap;rounded=0;" vertex="1" parent="1">
                    <mxGeometry x="550" y="270" width="30" height="20" as="geometry"/>
                </mxCell>
                <mxCell id="27" value="&lt;span style=&quot;font-size: 8px;&quot;&gt;&lt;b&gt;0..*&lt;/b&gt;&lt;/span&gt;" style="text;html=1;strokeColor=none;fillColor=none;align=center;verticalAlign=middle;whiteSpace=wrap;rounded=0;" vertex="1" parent="1">
                    <mxGeometry x="550" y="200" width="30" height="20" as="geometry"/>
                </mxCell>
            </root>
        </mxGraphModel>
    </diagram>
</mxfile>